<mxfile host="app.diagrams.net" agent="Mozilla/5.0 (Windows NT 10.0; Win64; x64) AppleWebKit/537.36 (KHTML, like Gecko) Chrome/126.0.0.0 YaBrowser/24.7.0.0 Safari/537.36" version="24.7.17">
  <diagram name="Страница — 1" id="-KBVf9pQlurrv1QNbtcl">
    <mxGraphModel dx="1827" dy="540" grid="1" gridSize="10" guides="1" tooltips="1" connect="1" arrows="1" fold="1" page="1" pageScale="1" pageWidth="827" pageHeight="1169" math="0" shadow="0">
      <root>
        <mxCell id="0" />
        <mxCell id="1" parent="0" />
        <mxCell id="cQAtFfB13Gvq0wlUZ0VO-65" value="&lt;b&gt;Администратор&lt;/b&gt;" style="shape=umlActor;verticalLabelPosition=bottom;verticalAlign=top;html=1;outlineConnect=0;" parent="1" vertex="1">
          <mxGeometry x="-760" y="485" width="30" height="60" as="geometry" />
        </mxCell>
        <mxCell id="cQAtFfB13Gvq0wlUZ0VO-66" value="Покупка&lt;div&gt;&amp;nbsp;абонемента&lt;/div&gt;" style="ellipse;whiteSpace=wrap;html=1;" parent="1" vertex="1">
          <mxGeometry x="-533" y="405" width="120" height="80" as="geometry" />
        </mxCell>
        <mxCell id="cQAtFfB13Gvq0wlUZ0VO-67" value="&lt;b&gt;Клиент&lt;/b&gt;" style="shape=umlActor;verticalLabelPosition=bottom;verticalAlign=top;html=1;outlineConnect=0;" parent="1" vertex="1">
          <mxGeometry x="-250" y="365" width="30" height="60" as="geometry" />
        </mxCell>
        <mxCell id="cQAtFfB13Gvq0wlUZ0VO-69" value="" style="endArrow=none;html=1;rounded=0;entryX=0;entryY=0.5;entryDx=0;entryDy=0;exitX=0.75;exitY=0.1;exitDx=0;exitDy=0;exitPerimeter=0;" parent="1" source="cQAtFfB13Gvq0wlUZ0VO-65" target="cQAtFfB13Gvq0wlUZ0VO-66" edge="1">
          <mxGeometry width="50" height="50" relative="1" as="geometry">
            <mxPoint x="-700" y="600" as="sourcePoint" />
            <mxPoint x="-650" y="550" as="targetPoint" />
          </mxGeometry>
        </mxCell>
        <mxCell id="cQAtFfB13Gvq0wlUZ0VO-71" value="" style="endArrow=none;html=1;rounded=0;entryX=0.25;entryY=0.1;entryDx=0;entryDy=0;exitX=1;exitY=0.5;exitDx=0;exitDy=0;entryPerimeter=0;" parent="1" source="cQAtFfB13Gvq0wlUZ0VO-66" target="cQAtFfB13Gvq0wlUZ0VO-67" edge="1">
          <mxGeometry width="50" height="50" relative="1" as="geometry">
            <mxPoint x="-727" y="501" as="sourcePoint" />
            <mxPoint x="-523" y="455" as="targetPoint" />
          </mxGeometry>
        </mxCell>
        <mxCell id="cQAtFfB13Gvq0wlUZ0VO-72" value="&lt;b&gt;Тренер&lt;/b&gt;" style="shape=umlActor;verticalLabelPosition=bottom;verticalAlign=top;html=1;outlineConnect=0;" parent="1" vertex="1">
          <mxGeometry x="-340" y="640" width="30" height="60" as="geometry" />
        </mxCell>
        <mxCell id="cQAtFfB13Gvq0wlUZ0VO-74" value="" style="endArrow=none;html=1;rounded=0;entryX=0.011;entryY=0.387;entryDx=0;entryDy=0;entryPerimeter=0;exitX=0.5;exitY=0.5;exitDx=0;exitDy=0;exitPerimeter=0;" parent="1" source="cQAtFfB13Gvq0wlUZ0VO-65" target="cQAtFfB13Gvq0wlUZ0VO-75" edge="1">
          <mxGeometry width="50" height="50" relative="1" as="geometry">
            <mxPoint x="-650" y="640" as="sourcePoint" />
            <mxPoint x="-580" y="619.98" as="targetPoint" />
          </mxGeometry>
        </mxCell>
        <mxCell id="cQAtFfB13Gvq0wlUZ0VO-75" value="Распределение клиентов" style="ellipse;whiteSpace=wrap;html=1;" parent="1" vertex="1">
          <mxGeometry x="-580" y="570" width="120" height="80" as="geometry" />
        </mxCell>
        <mxCell id="cQAtFfB13Gvq0wlUZ0VO-77" value="" style="endArrow=none;html=1;rounded=0;exitX=0.25;exitY=0.1;exitDx=0;exitDy=0;exitPerimeter=0;entryX=1;entryY=0.5;entryDx=0;entryDy=0;" parent="1" source="cQAtFfB13Gvq0wlUZ0VO-72" target="cQAtFfB13Gvq0wlUZ0VO-75" edge="1">
          <mxGeometry width="50" height="50" relative="1" as="geometry">
            <mxPoint x="-735" y="525" as="sourcePoint" />
            <mxPoint x="-450" y="640" as="targetPoint" />
          </mxGeometry>
        </mxCell>
        <mxCell id="cQAtFfB13Gvq0wlUZ0VO-83" value="Запись на тренировки" style="ellipse;whiteSpace=wrap;html=1;" parent="1" vertex="1">
          <mxGeometry x="-220" y="485" width="120" height="80" as="geometry" />
        </mxCell>
        <mxCell id="cQAtFfB13Gvq0wlUZ0VO-85" value="" style="endArrow=none;html=1;rounded=0;entryX=0.5;entryY=1;entryDx=0;entryDy=0;exitX=0.75;exitY=0.1;exitDx=0;exitDy=0;exitPerimeter=0;" parent="1" source="cQAtFfB13Gvq0wlUZ0VO-72" target="cQAtFfB13Gvq0wlUZ0VO-83" edge="1">
          <mxGeometry width="50" height="50" relative="1" as="geometry">
            <mxPoint x="-490" y="600" as="sourcePoint" />
            <mxPoint x="-440" y="550" as="targetPoint" />
          </mxGeometry>
        </mxCell>
        <mxCell id="cQAtFfB13Gvq0wlUZ0VO-87" value="" style="endArrow=none;html=1;rounded=0;entryX=1;entryY=1;entryDx=0;entryDy=0;entryPerimeter=0;exitX=0.5;exitY=0;exitDx=0;exitDy=0;" parent="1" source="cQAtFfB13Gvq0wlUZ0VO-83" target="cQAtFfB13Gvq0wlUZ0VO-67" edge="1">
          <mxGeometry width="50" height="50" relative="1" as="geometry">
            <mxPoint x="-470" y="620" as="sourcePoint" />
            <mxPoint x="-420" y="570" as="targetPoint" />
          </mxGeometry>
        </mxCell>
        <mxCell id="cQAtFfB13Gvq0wlUZ0VO-92" value="выгрузить&amp;nbsp;&lt;div&gt;расписание (зала, тренировок, тренеров)&lt;/div&gt;" style="ellipse;whiteSpace=wrap;html=1;" parent="1" vertex="1">
          <mxGeometry x="-805" y="325" width="120" height="80" as="geometry" />
        </mxCell>
        <mxCell id="cQAtFfB13Gvq0wlUZ0VO-93" value="" style="endArrow=none;html=1;rounded=0;exitX=0.5;exitY=0;exitDx=0;exitDy=0;exitPerimeter=0;entryX=0.5;entryY=1;entryDx=0;entryDy=0;" parent="1" source="cQAtFfB13Gvq0wlUZ0VO-65" target="cQAtFfB13Gvq0wlUZ0VO-92" edge="1">
          <mxGeometry width="50" height="50" relative="1" as="geometry">
            <mxPoint x="-540" y="560" as="sourcePoint" />
            <mxPoint x="-490" y="510" as="targetPoint" />
          </mxGeometry>
        </mxCell>
        <mxCell id="cQAtFfB13Gvq0wlUZ0VO-94" value="Выбор типа абонемента" style="ellipse;whiteSpace=wrap;html=1;" parent="1" vertex="1">
          <mxGeometry x="-150" y="310" width="120" height="80" as="geometry" />
        </mxCell>
        <mxCell id="cQAtFfB13Gvq0wlUZ0VO-95" value="" style="endArrow=none;html=1;rounded=0;entryX=0.75;entryY=0.1;entryDx=0;entryDy=0;entryPerimeter=0;exitX=0;exitY=0.5;exitDx=0;exitDy=0;" parent="1" source="cQAtFfB13Gvq0wlUZ0VO-94" target="cQAtFfB13Gvq0wlUZ0VO-67" edge="1">
          <mxGeometry width="50" height="50" relative="1" as="geometry">
            <mxPoint x="-500" y="560" as="sourcePoint" />
            <mxPoint x="-450" y="510" as="targetPoint" />
          </mxGeometry>
        </mxCell>
      </root>
    </mxGraphModel>
  </diagram>
</mxfile>
